<?xml version="1.0" encoding="UTF-8"?>
<svg xmlns="http://www.w3.org/2000/svg" viewBox="0 0 1000 700" width="1000" height="700">
  <defs>
    <style>
      text { font-family: "Microsoft YaHei","PingFang SC",sans-serif; }
      .title { font-size: 22px; font-weight: bold; fill: #e0e0e0; }
      .subtitle { font-size: 13px; fill: #888; }
      .chapter-title { font-size: 14px; font-weight: bold; fill: #e8e8e8; }
      .chapter-desc { font-size: 11px; fill: #999; }
      .node-label { font-size: 12px; fill: #ccc; text-anchor: middle; }
      .arrow-label { font-size: 10px; fill: #777; }
      rect.chapter { rx: 8; ry: 8; stroke-width: 1.5; }
      rect.core { rx: 12; ry: 12; stroke: #d4a574; stroke-width: 2; }
    </style>
    <marker id="arrow" viewBox="0 0 10 10" refX="9" refY="5" markerWidth="6" markerHeight="6" orient="auto">
      <path d="M0,0 L10,5 L0,10 Z" fill="#666"/>
    </marker>
  </defs>

  <!-- Background -->
  <rect width="1000" height="700" fill="#1a1a2e"/>

  <!-- Title -->
  <text x="500" y="40" text-anchor="middle" class="title">答案之书 v7 — 个人操作系统架构</text>
  <text x="500" y="62" text-anchor="middle" class="subtitle">八章八大维度 · 环卫工儿子的逃跑路线图</text>

  <!-- Core: Personal OS -->
  <rect x="350" y="310" width="300" height="80" class="core" fill="#0f3460"/>
  <text x="500" y="342" text-anchor="middle" class="title" font-size="18">个人操作系统</text>
  <text x="500" y="365" text-anchor="middle" class="subtitle" font-size="12">决策-行动-复盘循环</text>

  <!-- Layer 1: Foundation (CH01-CH03) -->
  <rect x="60" y="100" width="260" height="160" rx="6" fill="#16213e" stroke="#e94560" stroke-width="1"/>
  <text x="190" y="125" text-anchor="middle" class="chapter-title" fill="#e94560">基础层 · 身体与认知</text>

  <rect x="75" y="140" width="230" height="30" rx="4" fill="#1a1a3e" stroke="#e94560" stroke-width="0.5"/>
  <text x="190" y="160" text-anchor="middle" class="chapter-desc">CH01 元能力 · 检索练习g=0.50</text>

  <rect x="75" y="178" width="230" height="30" rx="4" fill="#1a1a3e" stroke="#e94560" stroke-width="0.5"/>
  <text x="190" y="198" text-anchor="middle" class="chapter-desc">CH02 心理健康 · CBT g=1.27</text>

  <rect x="75" y="216" width="230" height="30" rx="4" fill="#1a1a3e" stroke="#e94560" stroke-width="0.5"/>
  <text x="190" y="236" text-anchor="middle" class="chapter-desc">CH03 身体生产力 · 握力HR 1.16</text>

  <!-- Layer 2: Strategy (CH04-CH06) -->
  <rect x="370" y="100" width="260" height="160" rx="6" fill="#16213e" stroke="#f0a500" stroke-width="1"/>
  <text x="500" y="125" text-anchor="middle" class="chapter-title" fill="#f0a500">策略层 · 财富与关系</text>

  <rect x="385" y="140" width="230" height="30" rx="4" fill="#1a1a3e" stroke="#f0a500" stroke-width="0.5"/>
  <text x="500" y="160" text-anchor="middle" class="chapter-desc">CH04 财富事业 · 一人企业复利</text>

  <rect x="385" y="178" width="230" height="30" rx="4" fill="#1a1a3e" stroke="#f0a500" stroke-width="0.5"/>
  <text x="500" y="198" text-anchor="middle" class="chapter-desc">CH05 关系网络 · 反依赖+形象管理</text>

  <rect x="385" y="216" width="230" height="30" rx="4" fill="#1a1a3e" stroke="#f0a500" stroke-width="0.5"/>
  <text x="500" y="236" text-anchor="middle" class="chapter-desc">CH06 对标顶尖 · 反脆弱边界</text>

  <!-- Layer 3: Meta (CH07-CH08) -->
  <rect x="680" y="100" width="260" height="160" rx="6" fill="#16213e" stroke="#00b4d8" stroke-width="1"/>
  <text x="810" y="125" text-anchor="middle" class="chapter-title" fill="#00b4d8">元层 · 思维与系统</text>

  <rect x="695" y="140" width="230" height="30" rx="4" fill="#1a1a3e" stroke="#00b4d8" stroke-width="0.5"/>
  <text x="810" y="160" text-anchor="middle" class="chapter-desc">CH07 问题解决 · 第一性五步算法</text>

  <rect x="695" y="178" width="230" height="30" rx="4" fill="#1a1a3e" stroke="#00b4d8" stroke-width="0.5"/>
  <text x="810" y="198" text-anchor="middle" class="chapter-desc">CH08 个人OS · 信息来源S/A/B/C</text>

  <rect x="695" y="216" width="230" height="30" rx="4" fill="#1a1a3e" stroke="#00b4d8" stroke-width="0.5"/>
  <text x="810" y="236" text-anchor="middle" class="chapter-desc">证据标记 · 可复用的生产系统</text>

  <!-- Arrows: Layers -> Core -->
  <line x1="280" y1="260" x2="410" y2="340" stroke="#666" stroke-width="1.2" marker-end="url(#arrow)"/>
  <line x1="500" y1="260" x2="500" y2="310" stroke="#666" stroke-width="1.2" marker-end="url(#arrow)"/>
  <line x1="720" y1="260" x2="590" y2="340" stroke="#666" stroke-width="1.2" marker-end="url(#arrow)"/>

  <!-- Evidence Footer -->
  <rect x="60" y="420" width="880" height="55" rx="6" fill="#0f3460" stroke="#1a1a3e" stroke-width="0.5"/>
  <text x="500" y="445" text-anchor="middle" class="chapter-desc" font-size="12" fill="#888">
    证据基线: 130本名著 · 36本微读划线(2,018条) · JAMA/Lancet/Psychological Bulletin · S/A/B/C四级标记 · 5反共识四件套
  </text>
  <text x="500" y="465" text-anchor="middle" class="chapter-desc" font-size="11" fill="#666">
    Content Pipeline: humanizer→traffic-engineering(82/A)→viral-writer(88/A)→wewrite→crosspost | 飞书9/9同步 | GitHub songxrui/knowledge-base
  </text>

  <!-- Source text -->
  <rect x="60" y="490" width="880" height="60" rx="6" fill="#1a1a3e" stroke="#333" stroke-width="0.3"/>
  <text x="500" y="512" text-anchor="middle" class="chapter-desc" font-size="11" fill="#777">
    来源溯源: 微读划线/Notion笔记/AI会话 | 个人锚点: 环卫工儿子→Java逃兵→秋招全挂→创业
  </text>
  <text x="500" y="532" text-anchor="middle" class="chapter-desc" font-size="11" fill="#666">
    董辉 · 22岁 · 2026 | 答案之书 v7 持续迭代中
  </text>
</svg>
